<svg aria-hidden="true" xmlns="http://www.w3.org/2000/svg" xmlns:xlink="http://www.w3.org/1999/xlink"><symbol viewBox="0 0 28 16" id="arrow" xmlns="http://www.w3.org/2000/svg">
<path d="M1 7C0.447715 7 4.82823e-08 7.44772 0 8C-4.82823e-08 8.55228 0.447715 9 1 9L1 7ZM27.7071 8.70711C28.0976 8.31658 28.0976 7.68342 27.7071 7.2929L21.3431 0.928934C20.9526 0.53841 20.3195 0.538409 19.9289 0.928934C19.5384 1.31946 19.5384 1.95262 19.9289 2.34315L25.5858 8L19.9289 13.6569C19.5384 14.0474 19.5384 14.6805 19.9289 15.0711C20.3195 15.4616 20.9526 15.4616 21.3431 15.0711L27.7071 8.70711ZM1 9L27 9L27 7L1 7L1 9Z"/>
</symbol><symbol viewBox="0 0 71 8" id="arrow-long" xmlns="http://www.w3.org/2000/svg">
<path d="M0.646447 3.64645C0.451184 3.84171 0.451184 4.15829 0.646447 4.35355L3.82843 7.53553C4.02369 7.7308 4.34027 7.7308 4.53553 7.53553C4.7308 7.34027 4.7308 7.02369 4.53553 6.82843L1.70711 4L4.53553 1.17157C4.7308 0.976311 4.7308 0.659729 4.53553 0.464466C4.34027 0.269204 4.02369 0.269204 3.82843 0.464466L0.646447 3.64645ZM70 4.50001C70.2761 4.50001 70.5 4.27615 70.5 4.00001C70.5 3.72386 70.2761 3.50001 70 3.50001L70 4.50001ZM1 4.5L70 4.50001L70 3.50001L1 3.5L1 4.5Z"/>
</symbol><symbol viewBox="0 0 122 66" id="logo" xmlns="http://www.w3.org/2000/svg">
<path d="M13.6625 59.375H9.78131V60.181H11.9767V63.7393C11.3887 64.1194 10.7875 64.4012 10.1733 64.5847C9.55915 64.7682 8.86002 64.8599 8.07595 64.8599C7.04359 64.8599 6.1419 64.7026 5.3709 64.3881C4.59989 64.0735 3.95957 63.641 3.44992 63.0906C2.94027 62.527 2.55477 61.8651 2.29341 61.105C2.04512 60.3317 1.92098 59.4864 1.92098 58.5689C1.92098 57.6646 2.03859 56.8323 2.27381 56.0722C2.5221 55.312 2.888 54.6567 3.37151 54.1063C3.85502 53.5558 4.44308 53.1298 5.13568 52.8284C5.84134 52.527 6.65808 52.3762 7.5859 52.3762C8.20009 52.3762 8.77508 52.4418 9.31086 52.5728C9.84665 52.7039 10.3236 52.8743 10.7418 53.084C11.16 53.2937 11.4997 53.5361 11.7611 53.8114C12.0355 54.0735 12.2119 54.3422 12.2903 54.6174H13.7017C13.5841 54.3291 13.3815 54.008 13.094 53.6541C12.8196 53.2871 12.4406 52.9464 11.9571 52.6318C11.4736 52.3173 10.8725 52.0551 10.1537 51.8454C9.44807 51.6226 8.61173 51.5112 7.64471 51.5112C6.53394 51.5112 5.50811 51.6685 4.56722 51.9831C3.6394 52.2976 2.83573 52.7498 2.1562 53.3395C1.47667 53.9293 0.947421 54.6567 0.568453 55.5217C0.189484 56.3736 0 57.3435 0 58.4313C0 59.3618 0.143747 60.2662 0.43124 61.1443C0.731801 62.0093 1.18264 62.7891 1.78377 63.4837C2.39796 64.1653 3.17549 64.7157 4.11638 65.1351C5.05727 65.5414 6.18111 65.7446 7.48789 65.7446C8.46798 65.7446 9.337 65.6397 10.0949 65.43C10.8529 65.2072 11.4801 64.9647 11.9767 64.7026V65.5087H13.6625V59.375Z"/>
<path d="M17.1983 51.7471V65.5087H18.9821V59.4339H19.8445C20.2104 59.4339 20.511 59.4667 20.7462 59.5322C20.9945 59.5978 21.2167 59.7092 21.4127 59.8664C21.6087 60.0237 21.7917 60.2269 21.9615 60.4759C22.1314 60.7249 22.334 61.0329 22.5692 61.3999L24.1177 63.7C24.3138 64.0014 24.5032 64.2767 24.6862 64.5257C24.8822 64.7747 25.0913 64.991 25.3134 65.1744C25.5356 65.3448 25.7839 65.4824 26.0583 65.5873C26.3458 65.6921 26.6856 65.7446 27.0776 65.7446C27.3651 65.7446 27.6003 65.7315 27.7833 65.7052C27.9662 65.679 28.1492 65.6135 28.3321 65.5087V64.7813C28.2668 64.7944 28.2014 64.8075 28.1361 64.8206C28.0708 64.8206 28.0054 64.8206 27.9401 64.8206C27.6657 64.8206 27.4239 64.7813 27.2148 64.7026C27.0057 64.624 26.8097 64.5126 26.6268 64.3684C26.4438 64.2111 26.2674 64.0277 26.0975 63.818C25.9276 63.5951 25.7512 63.3461 25.5683 63.0709C25.0194 62.2714 24.5947 61.6358 24.2941 61.1639C23.9936 60.679 23.7518 60.3055 23.5689 60.0434C23.399 59.7812 23.2553 59.5912 23.1376 59.4732C23.0331 59.3553 22.9024 59.257 22.7456 59.1784L22.5496 59.0801V59.0014C23.1768 58.9621 23.7126 58.8245 24.1569 58.5886C24.6143 58.3527 24.9867 58.0578 25.2742 57.7039C25.5617 57.35 25.7708 56.97 25.9015 56.5637C26.0322 56.1443 26.0975 55.738 26.0975 55.3448C26.0975 54.9909 26.0256 54.6043 25.8819 54.1849C25.7512 53.7655 25.516 53.3789 25.1762 53.025C24.8495 52.658 24.3987 52.3566 23.8237 52.1207C23.2487 51.8717 22.5235 51.7471 21.6479 51.7471H17.1983ZM18.9821 52.6122H20.9618C21.4584 52.6122 21.9027 52.6842 22.2948 52.8284C22.6999 52.9726 23.0462 53.1757 23.3337 53.4378C23.6212 53.6869 23.8368 53.9883 23.9805 54.3422C24.1373 54.696 24.2157 55.0827 24.2157 55.5021C24.2157 55.8559 24.1439 56.2164 24.0001 56.5833C23.8694 56.9372 23.6669 57.2649 23.3925 57.5663C23.118 57.8546 22.7783 58.0905 22.3732 58.274C21.9811 58.4575 21.5238 58.5493 21.001 58.5493H18.9821V52.6122Z"/>
<path d="M31.268 51.7471V65.5087H40.128V64.4274H33.0517V58.6672H39.1283V57.7629H33.0517V52.8284H40.128V51.7471H31.268Z"/>
<path d="M41.2955 51.7471L46.0391 60.2989V65.5087H47.8229V60.122L52.645 51.7471H51.5865L47.3917 59.0014H47.3133L43.3145 51.7471H41.2955Z"/>
<path d="M53.9518 62.029C53.978 62.5925 54.1217 63.1037 54.3831 63.5624C54.6575 64.0211 55.0234 64.4143 55.4808 64.7419C55.9512 65.0565 56.5001 65.3055 57.1273 65.489C57.7546 65.6594 58.4407 65.7446 59.1855 65.7446C59.9435 65.7446 60.623 65.6528 61.2241 65.4693C61.8383 65.2858 62.361 65.0237 62.7923 64.683C63.2235 64.3422 63.5567 63.9294 63.792 63.4444C64.0272 62.9595 64.1448 62.4221 64.1448 61.8324C64.1448 61.0198 63.9422 60.3579 63.5371 59.8468C63.132 59.3225 62.6224 58.89 62.0082 58.5493C61.4071 58.1954 60.7471 57.9005 60.0284 57.6646C59.3227 57.4287 58.6628 57.1797 58.0486 56.9175C57.4475 56.6554 56.9444 56.354 56.5393 56.0132C56.1342 55.6724 55.9316 55.2203 55.9316 54.6567C55.9316 54.3422 55.997 54.0473 56.1276 53.7721C56.2714 53.4968 56.4739 53.2609 56.7353 53.0643C57.0097 52.8546 57.343 52.6908 57.735 52.5728C58.127 52.4418 58.5779 52.3762 59.0875 52.3762C59.9369 52.3762 60.6557 52.5597 61.2437 52.9267C61.8448 53.2806 62.1977 53.8441 62.3022 54.6174H63.6351C63.5567 54.1325 63.3803 53.7 63.1059 53.3199C62.8315 52.9267 62.4852 52.599 62.067 52.3369C61.6488 52.0617 61.1718 51.8585 60.6361 51.7275C60.1133 51.5833 59.5645 51.5112 58.9895 51.5112C58.3884 51.5112 57.8134 51.5899 57.2646 51.7471C56.7288 51.9044 56.2518 52.1338 55.8336 52.4352C55.4285 52.7367 55.1018 53.1167 54.8535 53.5755C54.6183 54.0342 54.5007 54.5584 54.5007 55.1482C54.5007 55.9215 54.6967 56.544 55.0888 57.0158C55.4808 57.4877 55.9708 57.8808 56.5589 58.1954C57.16 58.5099 57.8069 58.7786 58.4995 59.0014C59.1921 59.2242 59.8324 59.4798 60.4204 59.7681C61.0216 60.0434 61.5181 60.3841 61.9102 60.7904C62.3022 61.1967 62.4982 61.7406 62.4982 62.4221C62.4982 63.274 62.1846 63.8966 61.5574 64.2898C60.9432 64.683 60.1199 64.8796 59.0875 64.8796C58.2642 64.8796 57.6043 64.7747 57.1077 64.565C56.6112 64.3422 56.2322 64.0801 55.9708 63.7786C55.7095 63.4772 55.5331 63.1692 55.4416 62.8546C55.3501 62.527 55.2978 62.2518 55.2848 62.029H53.9518Z"/>
<path d="M72.9068 65.5087V52.8284H78.1601V51.7471H65.8698V52.8284H71.123V65.5087H72.9068Z"/>
<path d="M78.1538 58.6279C78.1538 59.3618 78.291 60.1482 78.5654 60.987C78.8529 61.8127 79.2972 62.5794 79.8984 63.2872C80.4995 63.9949 81.264 64.5847 82.1918 65.0565C83.1196 65.5152 84.2304 65.7446 85.5241 65.7446C86.3996 65.7446 87.1902 65.6397 87.8959 65.43C88.6146 65.2072 89.255 64.9123 89.8169 64.5453C90.3919 64.1784 90.8885 63.759 91.3066 63.2872C91.7248 62.8022 92.0646 62.2976 92.3259 61.7734C92.6003 61.236 92.8029 60.6987 92.9336 60.1613C93.0773 59.624 93.1492 59.1128 93.1492 58.6279C93.1492 57.8939 92.9989 57.1141 92.6984 56.2884C92.3978 55.4496 91.9339 54.6764 91.3066 53.9686C90.6794 53.2609 89.8822 52.6777 88.9152 52.219C87.9612 51.7471 86.8309 51.5112 85.5241 51.5112C84.2304 51.5112 83.1196 51.7406 82.1918 52.1993C81.264 52.658 80.4995 53.2412 79.8984 53.949C79.2972 54.6436 78.8529 55.4103 78.5654 56.2491C78.291 57.0879 78.1538 57.8808 78.1538 58.6279ZM80.0748 58.6279C80.0748 57.7105 80.212 56.8717 80.4864 56.1115C80.7739 55.3382 81.1594 54.6764 81.6429 54.1259C82.1395 53.5755 82.721 53.1495 83.3875 52.8481C84.054 52.5335 84.7792 52.3762 85.5633 52.3762C86.3343 52.3762 87.0596 52.5335 87.7391 52.8481C88.4317 53.1495 89.0328 53.5755 89.5425 54.1259C90.0652 54.6764 90.4768 55.3382 90.7774 56.1115C91.0779 56.8717 91.2282 57.7105 91.2282 58.6279C91.2282 59.5453 91.0779 60.3907 90.7774 61.1639C90.4768 61.9241 90.0652 62.5794 89.5425 63.1299C89.0328 63.6803 88.4317 64.1128 87.7391 64.4274C87.0596 64.7288 86.3343 64.8796 85.5633 64.8796C84.7792 64.8796 84.054 64.7288 83.3875 64.4274C82.721 64.1128 82.1395 63.6803 81.6429 63.1299C81.1594 62.5794 80.7739 61.9241 80.4864 61.1639C80.212 60.3907 80.0748 59.5453 80.0748 58.6279Z"/>
<path d="M107.542 51.7471V62.2649H107.463L96.5841 51.5112H96.4861V65.5087H97.3878V54.9909H97.4662L108.345 65.7446H108.443V51.7471H107.542Z"/>
<path d="M113.14 51.7471V65.5087H122V64.4274H114.924V58.6672H121V57.7629H114.924V52.8284H122V51.7471H113.14Z"/>
<path d="M46.7594 5.11283C50.0215 1.70506 54.2857 0.000783755 59.552 0C62.5349 0 65.7287 0.525905 69.1333 1.5777V6.50008C65.6581 4.85419 62.4116 4.03125 59.3938 4.03125C55.9042 4.03125 53.0309 5.35462 50.774 8.00136C49.8146 9.12361 49.0451 10.405 48.4982 11.7916L42.0222 15.5889C42.5085 11.3966 44.0876 7.90456 46.7594 5.11283Z"/>
<path d="M60.923 7.45557L85.4001 21.2299L83.0939 25.3133L60.9369 12.8407L47.6496 20.3682C47.7053 20.8639 47.7819 21.3491 47.8816 21.8205C48.3895 24.3119 49.6242 26.5977 51.4302 28.3903C54.0233 30.9883 57.3326 32.2873 61.358 32.2873C62.527 32.265 63.6928 32.1577 64.8463 31.9665V22.8848H58.3743V18.9206H70.1268V34.886C66.5307 36.0295 63.1228 36.6008 59.9033 36.6C54.5732 36.6 50.2396 34.9482 46.9025 31.6445C44.9507 29.7293 43.5154 27.3527 42.7298 24.7354C42.5929 24.2845 42.4731 23.8244 42.3702 23.355L38.9202 25.3098L36.6001 21.2333L60.923 7.45557Z"/>
</symbol></svg>